<?xml version="1.0" encoding="UTF-8"?>
<svg width="16px" height="16px" viewBox="0 0 16 16" version="1.1" xmlns="http://www.w3.org/2000/svg" xmlns:xlink="http://www.w3.org/1999/xlink">
    <title>79ABA369-FB6B-482E-A410-61225F521393</title>
    <g id="Page-1" stroke="none" stroke-width="1" fill="none" fill-rule="evenodd">
        <g id="HOMEPAGE" transform="translate(-586.000000, -2359.000000)" fill="#878686">
            <g id="1/2-Video-Right" transform="translate(0.000000, 1894.000000)">
                <g id="Group" transform="translate(375.000000, 148.000000)">
                    <g id="Button-/-Small-/-Filled-/-Dark-Copy-2" transform="translate(202.000000, 308.000000)">
                        <path d="M19.576,15.112 L17,17.688 L14.424,15.112 L13.288,16.248 L17,19.976 L20.712,16.248 L19.576,15.112 Z M23.4,17 C23.4,20.52 20.52,23.4 17,23.4 C13.48,23.4 10.6,20.52 10.6,17 C10.6,13.48 13.48,10.6 17,10.6 C20.52,10.6 23.4,13.48 23.4,17 L23.4,17 Z M25,17 C25,12.584 21.416,9 17,9 C12.584,9 9,12.584 9,17 C9,21.416 12.584,25 17,25 C21.416,25 25,21.416 25,17 L25,17 Z" id="Arrow-Right-Active" transform="translate(17.000000, 17.000000) scale(-1, 1) rotate(-270.000000) translate(-17.000000, -17.000000) "></path>
                    </g>
                </g>
            </g>
        </g>
    </g>
</svg>