<?xml version="1.0" encoding="UTF-8"?>
<svg width="58px" height="57px" viewBox="0 0 58 57" version="1.1" xmlns="http://www.w3.org/2000/svg" xmlns:xlink="http://www.w3.org/1999/xlink">
    <title>555B2552-283E-4B31-8F88-7CE6385A7D6E</title>
    <defs>
        <path d="M47.1936367,35.4989361 C45.5662699,34.2380429 43.2414602,34.1234163 41.6140935,35.3843094 L35.5695883,39.740122 C34.8721454,40.3132553 33.825981,40.1986286 33.1285381,39.5108687 L24.0617803,31.4870034 L15.9249464,22.5461249 C15.2275035,21.858365 15.2275035,20.9413518 15.6924654,20.1389653 L20.1096038,14.1783796 C21.3882492,12.5736065 21.2720087,10.2810736 19.9933633,8.67630053 L14.2975796,1.68407502 C12.5539723,-0.379204638 9.41547925,-0.608457933 7.43939101,1.34019508 L1.39488581,7.30078075 C0.464961938,8.21779394 0,9.47868706 0,10.7395802 C0.581202423,22.4314982 5.92826471,33.5502831 13.8326177,41.3448951 C21.7369706,49.1395071 33.0122976,54.4123329 44.868827,54.9854662 C46.1474724,55.1000928 47.4261177,54.5269596 48.3560416,53.6099464 L54.4005468,47.6493607 C56.609116,45.929961 56.4928755,42.7204149 54.2843063,41.1156418 L47.1936367,35.4989361 Z" id="path-1"></path>
    </defs>
    <g id="Page-1" stroke="none" stroke-width="1" fill="none" fill-rule="evenodd">
        <g id="HOMEPAGE" transform="translate(-1826.000000, -696.000000)">
            <g id="icons/utility/call-copy" transform="translate(1827.000000, 697.000000)">
                <mask id="mask-2" fill="white">
                    <use xlink:href="#path-1"></use>
                </mask>
                <use id="Mask" stroke="#FFFFFF" stroke-width="2" xlink:href="#path-1"></use>
            </g>
        </g>
    </g>
</svg>