<?xml version="1.0" encoding="UTF-8"?>
<svg width="80px" height="80px" viewBox="0 0 80 80" version="1.1" xmlns="http://www.w3.org/2000/svg" xmlns:xlink="http://www.w3.org/1999/xlink">
    <title>A9D9F0C8-BC70-451A-ACD3-9E72F96F4859</title>
    <defs>
        <linearGradient x1="83.7216697%" y1="0%" x2="16.2783303%" y2="100%" id="linearGradient-1">
            <stop stop-color="#F55D23" offset="0%"></stop>
            <stop stop-color="#9F041B" offset="100%"></stop>
        </linearGradient>
        <path d="M48,36.7448276 L48,62.3448276 L44.8,62.3448276 L44.8,36.7448276 L6.4,36.7448276 L6.4,62.3448276 L3.2,62.3448276 L3.2,36.7448276 L0,36.7448276 L0,23.9448276 L51.2,23.9448276 L51.2,36.7448276 L48,36.7448276 Z M3.2,33.5448276 L48,33.5448276 L48,27.1448276 L3.2,27.1448276 L3.2,33.5448276 Z M37.2618579,18.7927775 C36.7464705,19.212912 35.7019578,19.3264408 34.9288767,19.0463508 C34.1557941,18.7662618 33.9468917,18.1986179 34.4622804,17.7784844 C34.588523,17.675573 34.8141884,17.4507362 35.0477641,17.1333925 C35.9818499,15.8643119 35.9818499,14.5458697 34.4622804,13.3071466 C32.2433224,11.4982973 32.2433224,9.56599564 33.5523528,7.78750288 C33.8795565,7.34295283 34.2146706,7.00906808 34.4622804,6.80722246 C34.9776678,6.38708804 36.0221806,6.27355925 36.7952617,6.55364917 C37.5683444,6.83373817 37.777247,7.40138212 37.2618579,7.82151562 C37.1356153,7.92442697 36.90995,8.14926379 36.6763743,8.46660754 C35.7422884,9.73568815 35.7422884,11.0541303 37.2618579,12.2928534 C39.4808154,14.1017027 39.4808154,16.0340044 38.1717854,17.8124971 C37.8445825,18.2570472 37.5094677,18.5909319 37.2618579,18.7927775 Z M17.3997892,18.7927775 C16.884401,19.212912 15.8398894,19.3264408 15.0668072,19.0463508 C14.293725,18.7662618 14.0848226,18.1986179 14.6002108,17.7784844 C14.7264548,17.675573 14.9521191,17.4507362 15.1856946,17.1333925 C16.1197806,15.8643119 16.1197806,14.5458697 14.6002108,13.3071466 C12.3812535,11.4982973 12.3812535,9.56599564 13.6902838,7.78750288 C14.0174874,7.34295283 14.3526021,7.00906808 14.6002108,6.80722246 C15.115599,6.38708804 16.1601106,6.27355925 16.9331928,6.55364917 C17.706275,6.83373817 17.9151774,7.40138212 17.3997892,7.82151562 C17.2735452,7.92442697 17.0478809,8.14926379 16.8143054,8.46660754 C15.8802194,9.73568815 15.8802194,11.0541303 17.3997892,12.2928534 C19.6187465,14.1017027 19.6187465,16.0340044 18.3097162,17.8124971 C17.9825126,18.2570472 17.6473979,18.5909319 17.3997892,18.7927775 Z M27.5635702,18.7732732 C26.8873518,19.2445533 25.6082573,19.3400652 24.7066327,18.9866052 C23.8050082,18.6331451 23.6222805,17.9645617 24.2984988,17.4932816 C24.5542324,17.3150524 24.9875201,16.9459743 25.4305505,16.4313686 C27.1935021,14.3835996 27.1935021,12.2576231 24.2984988,10.2399958 C20.3912701,7.51691392 20.3912701,4.58613205 22.7096575,1.8931929 C23.2869621,1.22262023 23.8740093,0.722568039 24.2984988,0.426726777 C24.9747171,-0.0445533345 26.2538117,-0.140065242 27.1554362,0.213394842 C28.0570608,0.566854926 28.2397885,1.23543828 27.5635702,1.70671839 C27.3078365,1.88494762 26.8745489,2.25402574 26.4315185,2.76863143 C24.6685669,4.81640041 24.6685669,6.94237688 27.5635702,8.96000419 C31.4707988,11.6830861 31.4707988,14.6138679 29.1524115,17.3068071 C28.5751068,17.9773798 27.9880597,18.477432 27.5635702,18.7732732 Z" id="path-2"></path>
    </defs>
    <g id="Page-1" stroke="none" stroke-width="1" fill="none" fill-rule="evenodd">
        <g id="Icon-Hover" transform="translate(-37.000000, -40.000000)">
            <g id="2.-Icons-/-2.-Icon-Box-/-25-Size--/-ic_compass-Copy-3" transform="translate(37.000000, 40.000000)">
                <g id="icon-color" transform="translate(12.800000, 8.055172)">
                    <mask id="mask-3" fill="white">
                        <use xlink:href="#path-2"></use>
                    </mask>
                    <use id="Mask" fill="url(#linearGradient-1)" xlink:href="#path-2"></use>
                </g>
            </g>
        </g>
    </g>
</svg>