<?xml version="1.0" encoding="UTF-8"?>
<svg width="80px" height="80px" viewBox="0 0 80 80" version="1.1" xmlns="http://www.w3.org/2000/svg" xmlns:xlink="http://www.w3.org/1999/xlink">
    <title>1BA9A5C1-9E09-44B5-8951-0329517A58FF</title>
    <defs>
        <path d="M48,38.4 L48,64 L44.8,64 L44.8,38.4 L6.4,38.4 L6.4,64 L3.2,64 L3.2,38.4 L0,38.4 L0,25.6 L51.2,25.6 L51.2,38.4 L48,38.4 Z M3.2,35.2 L48,35.2 L48,28.8 L3.2,28.8 L3.2,35.2 Z M37.2618579,20.44795 C36.7464705,20.8680844 35.7019578,20.9816132 34.9288767,20.7015232 C34.1557941,20.4214342 33.9468917,19.8537903 34.4622804,19.4336568 C34.588523,19.3307454 34.8141884,19.1059086 35.0477641,18.7885649 C35.9818499,17.5194843 35.9818499,16.2010421 34.4622804,14.962319 C32.2433224,13.1534697 32.2433224,11.2211681 33.5523528,9.4426753 C33.8795565,8.99812525 34.2146706,8.66424049 34.4622804,8.46239487 C34.9776678,8.04226045 36.0221806,7.92873166 36.7952617,8.20882158 C37.5683444,8.48891058 37.777247,9.05655453 37.2618579,9.47668804 C37.1356153,9.57959939 36.90995,9.8044362 36.6763743,10.12178 C35.7422884,11.3908606 35.7422884,12.7093027 37.2618579,13.9480258 C39.4808154,15.7568752 39.4808154,17.6891768 38.1717854,19.4676695 C37.8445825,19.9122196 37.5094677,20.2461043 37.2618579,20.44795 Z M17.3997892,20.44795 C16.884401,20.8680844 15.8398894,20.9816132 15.0668072,20.7015232 C14.293725,20.4214342 14.0848226,19.8537903 14.6002108,19.4336568 C14.7264548,19.3307454 14.9521191,19.1059086 15.1856946,18.7885649 C16.1197806,17.5194843 16.1197806,16.2010421 14.6002108,14.962319 C12.3812535,13.1534697 12.3812535,11.2211681 13.6902838,9.4426753 C14.0174874,8.99812525 14.3526021,8.66424049 14.6002108,8.46239487 C15.115599,8.04226045 16.1601106,7.92873166 16.9331928,8.20882158 C17.706275,8.48891058 17.9151774,9.05655453 17.3997892,9.47668804 C17.2735452,9.57959939 17.0478809,9.8044362 16.8143054,10.12178 C15.8802194,11.3908606 15.8802194,12.7093027 17.3997892,13.9480258 C19.6187465,15.7568752 19.6187465,17.6891768 18.3097162,19.4676695 C17.9825126,19.9122196 17.6473979,20.2461043 17.3997892,20.44795 Z M27.5635702,20.4284456 C26.8873518,20.8997257 25.6082573,20.9952377 24.7066327,20.6417776 C23.8050082,20.2883175 23.6222805,19.6197341 24.2984988,19.148454 C24.5542324,18.9702248 24.9875201,18.6011467 25.4305505,18.086541 C27.1935021,16.038772 27.1935021,13.9127955 24.2984988,11.8951682 C20.3912701,9.17208633 20.3912701,6.24130447 22.7096575,3.54836531 C23.2869621,2.87779264 23.8740093,2.37774045 24.2984988,2.08189919 C24.9747171,1.61061908 26.2538117,1.51510717 27.1554362,1.86856726 C28.0570608,2.22202734 28.2397885,2.89061069 27.5635702,3.3618908 C27.3078365,3.54012004 26.8745489,3.90919815 26.4315185,4.42380385 C24.6685669,6.47157283 24.6685669,8.5975493 27.5635702,10.6151766 C31.4707988,13.3382585 31.4707988,16.2690404 29.1524115,18.9619795 C28.5751068,19.6325522 27.9880597,20.1326044 27.5635702,20.4284456 Z" id="path-1"></path>
    </defs>
    <g id="Page-1" stroke="none" stroke-width="1" fill="none" fill-rule="evenodd">
        <g id="HOMEPAGE" transform="translate(-513.000000, -1487.000000)">
            <g id="2.-Icons-/-2.-Icon-Box-/-25-Size--/-ic_compass" transform="translate(513.000000, 1487.000000)">
                <g id="icon-color" transform="translate(12.800000, 6.400000)">
                    <mask id="mask-2" fill="white">
                        <use xlink:href="#path-1"></use>
                    </mask>
                    <use id="Mask" fill="#2C2C2C" xlink:href="#path-1"></use>
                </g>
            </g>
        </g>
    </g>
</svg>