<?xml version="1.0" encoding="UTF-8"?>
<svg width="41px" height="69px" viewBox="0 0 41 69" version="1.1" xmlns="http://www.w3.org/2000/svg" xmlns:xlink="http://www.w3.org/1999/xlink">
    <!-- Generator: sketchtool 56 (101010) - https://sketch.com -->
    <title>D128807E-6AEC-4EA7-801E-A794CA7902E1</title>
    <desc>Created with sketchtool.</desc>
    <defs>
        <linearGradient x1="92.165137%" y1="0%" x2="7.83486304%" y2="100%" id="linearGradient-1">
            <stop stop-color="#F55D23" offset="0%"></stop>
            <stop stop-color="#9F041B" offset="100%"></stop>
        </linearGradient>
    </defs>
    <g id="Page-1" stroke="none" stroke-width="1" fill="none" fill-rule="evenodd">
        <g id="HOMEPAGE" transform="translate(-877.000000, -216.000000)" fill-rule="nonzero">
            <g id="noun_chimney_1068415" transform="translate(877.000000, 216.000000)">
                <path d="M4.1,40.5882846 L2.05,40.5882846 C0.917816263,40.5882846 0,39.679687 0,38.5588763 L0,26.3824269 C0,25.2616161 0.917816263,24.3530186 2.05,24.3530186 L38.95,24.3530186 C40.0821832,24.3530186 41,25.2616161 41,26.3824269 L41,38.5588763 C41,39.679687 40.0821832,40.5882846 38.95,40.5882846 L36.9,40.5882846 L36.9,66.9705918 C36.9,68.0914025 35.9821832,69 34.85,69 C33.7178168,69 32.8,68.0914025 32.8,66.9705918 L32.8,40.5882846 L8.2,40.5882846 L8.2,66.9705918 C8.2,68.0914025 7.28218374,69 6.15,69 C5.01781626,69 4.1,68.0914025 4.1,66.9705918 L4.1,40.5882846 Z M4.1,36.5294681 L36.9,36.5294681 L36.9,28.4118351 L4.1,28.4118351 L4.1,36.5294681 Z" id="Shape" fill="url(#linearGradient-1)"></path>
                <path d="M22.14,19.4824388 C21.4606898,20.3790882 20.175747,20.5608075 19.27,19.8883205 C18.364253,19.2158334 18.1806898,17.9437983 18.86,17.0471489 C18.9460697,16.9335427 19.1250883,16.6447386 19.3138943,16.2293837 C20.0599065,14.5882317 20.0599065,12.9486108 18.86,11.3648059 C16.6432399,8.43881519 16.6432399,5.26798658 17.9472276,2.39934293 C18.2709216,1.68724793 18.6044029,1.14925587 18.86,0.811882983 C19.5393102,-0.0847664033 20.824253,-0.266485706 21.73,0.406001334 C22.635747,1.07848837 22.8193102,2.35052349 22.14,3.24717288 C22.0539303,3.36077915 21.8749117,3.64958322 21.6861057,4.06493815 C20.9400935,5.70609016 20.9400935,7.34571097 22.14,8.92951596 C24.3567601,11.8555066 24.3567601,15.0263352 23.0527724,17.8949789 C22.7290784,18.6070739 22.3955971,19.1450659 22.14,19.4824388 Z M33.4807035,19.3905066 C32.8526809,20.3230786 31.5798984,20.5750783 30.6378646,19.953364 C29.6958308,19.3316497 29.4412744,18.0716521 30.0692969,17.1390811 C30.1092415,17.0797656 30.2133901,16.8907445 30.3271784,16.6091316 C30.7820692,15.4833275 30.7820692,14.3607005 30.0692969,13.3022819 C28.5042912,10.9783538 28.5042912,8.49314448 29.4160673,6.23660081 C29.6439457,5.67262724 29.8814638,5.24155049 30.0692969,4.96263167 C30.6973194,4.03005972 31.9701016,3.77805998 32.912135,4.39977427 C33.8541695,5.02148856 34.1087262,6.28148625 33.4807035,7.21405717 C33.4407583,7.27337272 33.3366101,7.46239383 33.2228217,7.74400669 C32.7679308,8.86981077 32.7679308,9.99243781 33.4807035,11.0508564 C35.0457084,13.3747845 35.0457084,15.8599938 34.133933,18.1165375 C33.9060539,18.6805111 33.6685358,19.1115878 33.4807035,19.3905066 Z M10.9307031,19.3905066 C10.3026806,20.3230786 9.02989843,20.5750783 8.08786459,19.953364 C7.14583076,19.3316497 6.89127436,18.0716521 7.51929689,17.1390811 C7.55924155,17.0797656 7.66339005,16.8907445 7.77717838,16.6091316 C8.23206897,15.4833275 8.23206897,14.3607005 7.51929689,13.3022819 C5.95429122,10.9783538 5.95429122,8.49314448 6.86606726,6.23660081 C7.09394567,5.67262724 7.33146379,5.24155049 7.51929689,4.96263167 C8.14731941,4.03005972 9.42010158,3.77805998 10.3621354,4.39977427 C11.3041692,5.02148856 11.5587256,6.28148625 10.9307031,7.21405717 C10.8907585,7.27337272 10.7866099,7.46239383 10.6728216,7.74400669 C10.217931,8.86981077 10.217931,9.99243781 10.9307031,11.0508564 C12.4957088,13.3747845 12.4957088,15.8599938 11.5839327,18.1165375 C11.3560543,18.6805111 11.1185362,19.1115878 10.9307031,19.3905066 Z" id="Combined-Shape" fill="#FFFFFF"></path>
            </g>
        </g>
    </g>
</svg>