<?xml version="1.0" encoding="UTF-8"?>
<svg width="80px" height="80px" viewBox="0 0 80 80" version="1.1" xmlns="http://www.w3.org/2000/svg" xmlns:xlink="http://www.w3.org/1999/xlink">
    <title>DD972614-22A2-4895-AC0C-3586E6D7A8AD</title>
    <g id="Page-1" stroke="none" stroke-width="1" fill="none" fill-rule="evenodd">
        <g id="HOMEPAGE" transform="translate(-1328.000000, -1492.000000)" fill="#2C2C2C">
            <g id="2.-Icons-/-2.-Icon-Box-/-25-Size--/-ic_compass" transform="translate(1328.000000, 1492.000000)">
                <path d="M25.1429307,28.8 L6.85706929,28.8 C6.60438802,28.8 6.4,28.5955 6.4,28.3428217 L6.4,10.0571783 C6.4,9.80450002 6.60438802,9.6 6.85706929,9.6 L25.1429307,9.6 C25.395612,9.6 25.6,9.80450002 25.6,10.0571783 L25.6,28.3427073 C25.6,28.5953855 25.395612,28.8 25.1429307,28.8 Z M9.14285714,26.0571429 L22.8571429,26.0571429 L22.8571429,12.3428571 L9.14285714,12.3428571 L9.14285714,26.0571429 Z M47.5429307,28.8 L29.2570693,28.8 C29.004388,28.8 28.8,28.5955 28.8,28.3428217 L28.8,10.0571783 C28.8,9.80450002 29.004388,9.6 29.2570693,9.6 L47.5429307,9.6 C47.795612,9.6 48,9.80450002 48,10.0571783 L48,28.3427073 C48,28.5953855 47.795612,28.8 47.5429307,28.8 Z M31.5428571,26.0571429 L45.2571429,26.0571429 L45.2571429,12.3428571 L31.5428571,12.3428571 L31.5428571,26.0571429 Z M47.5429307,51.2 L29.2570693,51.2 C29.004388,51.2 28.8,50.9955 28.8,50.7428217 L28.8,32.4571783 C28.8,32.2045 29.004388,32 29.2570693,32 L47.5429307,32 C47.795612,32 48,32.2045 48,32.4571783 L48,50.7427073 C48,50.9953855 47.795612,51.2 47.5429307,51.2 Z M31.5428571,48.4571429 L45.2571429,48.4571429 L45.2571429,34.7428571 L31.5428571,34.7428571 L31.5428571,48.4571429 Z M69.9429307,51.2 L51.6570693,51.2 C51.404388,51.2 51.2,50.9955 51.2,50.7428217 L51.2,32.4571783 C51.2,32.2045 51.404388,32 51.6570693,32 L69.9429307,32 C70.195612,32 70.4,32.2045 70.4,32.4571783 L70.4,50.7427073 C70.4,50.9953855 70.195612,51.2 69.9429307,51.2 Z M53.9428571,48.4571429 L67.6571429,48.4571429 L67.6571429,34.7428571 L53.9428571,34.7428571 L53.9428571,48.4571429 Z M25.1429307,51.2 L6.85706929,51.2 C6.60438802,51.2 6.4,50.9955 6.4,50.7428217 L6.4,32.4571783 C6.4,32.2045 6.60438802,32 6.85706929,32 L25.1429307,32 C25.395612,32 25.6,32.2045 25.6,32.4571783 L25.6,50.7427073 C25.6,50.9953855 25.395612,51.2 25.1429307,51.2 Z M9.14285714,48.4571429 L22.8571429,48.4571429 L22.8571429,34.7428571 L9.14285714,34.7428571 L9.14285714,48.4571429 Z M74.2736065,25.0640741 L56.6108207,29.7968033 C56.3667493,29.862202 56.1163972,29.7175697 56.0509992,29.4735012 L51.3183264,11.810926 C51.2529285,11.5668575 51.3974237,11.3164262 51.641495,11.2510274 L69.3042808,6.51829824 C69.5483522,6.45289951 69.7987044,6.59753185 69.8641023,6.84160031 L74.5967455,24.504065 C74.6621434,24.7481335 74.5176779,24.9986754 74.2736065,25.0640741 Z M58.1088186,26.5558013 L71.3558013,23.006283 L67.806283,9.75930022 L54.5593002,13.3088186 L58.1088186,26.5558013 Z M47.5429307,73.6 L29.2570693,73.6 C29.004388,73.6 28.8,73.3955 28.8,73.1428217 L28.8,54.8571783 C28.8,54.6045 29.004388,54.4 29.2570693,54.4 L47.5429307,54.4 C47.795612,54.4 48,54.6045 48,54.8571783 L48,73.1427073 C48,73.3953855 47.795612,73.6 47.5429307,73.6 Z M31.5428571,70.8571429 L45.2571429,70.8571429 L45.2571429,57.1428571 L31.5428571,57.1428571 L31.5428571,70.8571429 Z M69.9429307,73.6 L51.6570693,73.6 C51.404388,73.6 51.2,73.3955 51.2,73.1428217 L51.2,54.8571783 C51.2,54.6045 51.404388,54.4 51.6570693,54.4 L69.9429307,54.4 C70.195612,54.4 70.4,54.6045 70.4,54.8571783 L70.4,73.1427073 C70.4,73.3953855 70.195612,73.6 69.9429307,73.6 Z M53.9428571,70.8571429 L67.6571429,70.8571429 L67.6571429,57.1428571 L53.9428571,57.1428571 L53.9428571,70.8571429 Z M25.1429307,73.6 L6.85706929,73.6 C6.60438802,73.6 6.4,73.3955 6.4,73.1428217 L6.4,54.8571783 C6.4,54.6045 6.60438802,54.4 6.85706929,54.4 L25.1429307,54.4 C25.395612,54.4 25.6,54.6045 25.6,54.8571783 L25.6,73.1427073 C25.6,73.3953855 25.395612,73.6 25.1429307,73.6 Z M9.14285714,70.8571429 L22.8571429,70.8571429 L22.8571429,57.1428571 L9.14285714,57.1428571 L9.14285714,70.8571429 Z" id="Combined-Shape"></path>
            </g>
        </g>
    </g>
</svg>