<?xml version="1.0" encoding="UTF-8"?>
<svg width="80px" height="80px" viewBox="0 0 80 80" version="1.1" xmlns="http://www.w3.org/2000/svg" xmlns:xlink="http://www.w3.org/1999/xlink">
    <title>DF1C2DB0-746B-4E96-AFB4-552F104F74C3</title>
    <defs>
        <path d="M3.2,64 L60.7085526,64 L64,64 L64,19.2 L67.2,19.2 L67.2,0 C22.4,0 0,0 0,0 C0,6.4 0,12.8 0,19.2 L3.2,19.2 L3.2,64 Z M48,60.8 L19.2,60.8 L19.2,41.6 C19.2,35.2 25.6,25.6 32,25.6 C33.0612747,25.6 34.1559109,25.6 35.2,25.6 C41.6,25.6 48,35.2 48,41.6 L48,60.8 Z M35.6990748,58.8354996 L38.4157335,57.1129755 C38.9557494,56.770665 39.0931219,56.0871411 38.7248216,55.5879382 C38.3565213,55.0887354 37.6175522,54.9603689 37.0787206,55.3015823 L33.6017764,57.5057549 L30.1248321,55.3015823 C29.5871848,54.9592718 28.8482157,55.0887354 28.4787312,55.5879382 C28.1092466,56.0871411 28.2478033,56.770665 28.7878192,57.1129755 L31.5044779,58.8354996 L29.0898017,60.3671198 L26.9806609,60.3671198 C26.2855089,60.2003531 22.4,59.0472494 22.4,54.1265356 C22.4,49.9551746 24.9887602,45.8913342 26.4323553,43.947186 C27.0552683,44.8720827 27.7456833,46.0756553 27.9588475,47.0554095 C27.9860851,47.4865891 28.0322707,47.7499049 28.0417446,47.7992766 C28.144774,48.3610169 28.6966323,48.7570878 29.3088871,48.7055217 C29.9223262,48.6572472 30.3924716,48.1821816 30.3924716,47.6127612 C30.3924716,47.3560283 30.3664182,47.0905182 30.3166799,46.8217167 C30.2456252,45.4283373 30.4339202,41.8450483 33.6005921,38.4 C36.7684483,41.8395625 36.9626646,45.3833542 36.8880571,46.7953851 C36.8359503,47.0729638 36.8075284,47.346154 36.8075284,47.6116641 C36.8075284,48.1821816 37.2776738,48.65615 37.8911129,48.7044246 C38.4891568,48.7658649 39.0540418,48.3599198 39.1582554,47.7981794 C39.1677293,47.7488077 39.2127306,47.4909777 39.2411525,47.066381 C39.446027,46.1261241 40.1009146,44.9324259 40.7652762,43.9438945 C42.2100555,45.8869456 44.8,49.9540775 44.8,54.1254384 C44.8,58.9934891 40.9121227,60.1904788 40.2134179,60.3660227 L38.113751,60.3660227 L35.6990748,58.8354996 Z M60.8,60.8 L51.2,60.8 L51.2,41.6 C51.2,32 41.6,22.4 35.2,22.4 C32,22.4 35.2,22.4 32,22.4 C25.6,22.4 16,32 16,41.6 L16,60.8 L6.4,60.8 L6.4,19.2 L60.8,19.2 L60.8,60.8 Z M3.2,3.2 L64,3.2 L64,16 L3.2,16 L3.2,3.2 Z" id="path-1"></path>
    </defs>
    <g id="Page-1" stroke="none" stroke-width="1" fill="none" fill-rule="evenodd">
        <g id="HOMEPAGE" transform="translate(-920.000000, -1492.000000)">
            <g id="Text" transform="translate(797.000000, 1492.000000)">
                <g id="2.-Icons-/-2.-Icon-Box-/-25-Size--/-ic_compass" transform="translate(123.000000, 0.000000)">
                    <g id="icon-color" transform="translate(6.400000, 9.600000)">
                        <g id="Mask" transform="translate(0.000000, 0.000000)">
                            <mask id="mask-2" fill="white">
                                <use xlink:href="#path-1"></use>
                            </mask>
                            <use fill="#2C2C2C" xlink:href="#path-1"></use>
                        </g>
                    </g>
                </g>
            </g>
        </g>
    </g>
</svg>