<?xml version="1.0" encoding="UTF-8"?>
<svg width="24px" height="24px" viewBox="0 0 24 24" version="1.1" xmlns="http://www.w3.org/2000/svg" xmlns:xlink="http://www.w3.org/1999/xlink">
    <title>7076A9FA-73D6-4245-95DA-BBB208D88875</title>
    <defs>
        <path d="M7,0 C3.13,0 0,3.13 0,7 C0,12.25 7,20 7,20 C7,20 14,12.25 14,7 C14,3.13 10.87,0 7,0 L7,0 Z M7,9.5 C5.62,9.5 4.5,8.38 4.5,7 C4.5,5.62 5.62,4.5 7,4.5 C8.38,4.5 9.5,5.62 9.5,7 C9.5,8.38 8.38,9.5 7,9.5 L7,9.5 Z" id="path-1"></path>
    </defs>
    <g id="Page-1" stroke="none" stroke-width="1" fill="none" fill-rule="evenodd">
        <g id="z" transform="translate(-475.000000, -712.000000)">
            <rect fill="#FFFFFF" x="0" y="0" width="1920" height="2804"></rect>
            <rect id="Rectangle-Copy-2" fill="#FBFBFB" transform="translate(960.000000, 817.000000) scale(-1, 1) translate(-960.000000, -817.000000) " x="3" y="519" width="1914" height="596"></rect>
            <g id="Address" transform="translate(475.000000, 712.000000)">
                <g id="icon" transform="translate(5.000000, 2.000000)">
                    <mask id="mask-2" fill="white">
                        <use xlink:href="#path-1"></use>
                    </mask>
                    <use id="Mask" fill="#878686" xlink:href="#path-1"></use>
                </g>
            </g>
        </g>
    </g>
</svg>