<?xml version="1.0" encoding="UTF-8"?>
<svg width="105px" height="105px" viewBox="0 0 105 105" version="1.1" xmlns="http://www.w3.org/2000/svg" xmlns:xlink="http://www.w3.org/1999/xlink">
    <title>2D702C6C-1A19-4173-A247-28F11A290ADE</title>
    <defs>
        <rect id="path-1" x="0" y="0" width="1915" height="463"></rect>
        <path d="M30.625,0 C13.69375,0 0,13.69375 0,30.625 C0,53.59375 30.625,87.5 30.625,87.5 C30.625,87.5 61.25,53.59375 61.25,30.625 C61.25,13.69375 47.55625,0 30.625,0 L30.625,0 Z M30.625,41.5625 C24.5875,41.5625 19.6875,36.6625 19.6875,30.625 C19.6875,24.5875 24.5875,19.6875 30.625,19.6875 C36.6625,19.6875 41.5625,24.5875 41.5625,30.625 C41.5625,36.6625 36.6625,41.5625 30.625,41.5625 L30.625,41.5625 Z" id="path-3"></path>
    </defs>
    <g id="Page-1" stroke="none" stroke-width="1" fill="none" fill-rule="evenodd">
        <g id="z" transform="translate(-983.000000, -1264.000000)">
            <rect fill="#FFFFFF" x="0" y="0" width="1920" height="2804"></rect>
            <g id="Background" transform="translate(5.000000, 1150.000000)">
                <mask id="mask-2" fill="white">
                    <use xlink:href="#path-1"></use>
                </mask>
                <use id="Mask" fill="#FFFFFF" xlink:href="#path-1"></use>
                <g id="Map" mask="url(#mask-2)">
                    <g transform="translate(0.000000, -1095.000000)">
                        <rect id="Rectangle" fill="#FBFBFB" x="0" y="0" width="1952" height="1947"></rect>
                        <path d="M1551.90785,1894.16387 L1682.55809,1919.72927 L1677.51817,1949.55557 L1701.16703,1949.55557 L1758.1569,1624.56508 L1771.33823,1949.55557 L1794.5994,1949.55557 L1790.33486,1839.93423 L1850.03853,1838.38481 L1856.24151,1949.55557 L1867.8721,1949.55557 L1861.66912,1837.99745 L1951.22463,1835.67333 L1951.22463,1812.43205 L1877.56425,1814.36883 L1872.13664,1775.24601 L1951.61231,1777.57014 L1951.61231,1765.9495 L1870.5859,1763.62538 L1859.73069,1687.31653 L1907.80377,1634.6363 L1952,1662.52583 L1952,1648.58107 L1915.94518,1625.72715 L1952,1585.82963 L1952,1568.39867 L1857.40457,1672.59705 C1852.36465,1643.54546 1839.95869,1570.33544 1834.53108,1539.34708 L1952,1559.48952 L1952,1535.86089 L1893.45938,1525.78967 L1907.41609,1438.63489 C1922.92354,1441.73373 1938.0433,1444.83256 1952,1447.9314 L1952,1423.91541 L1918.65899,1416.94303 L1952,1374.33403 L1952,1336.37328 L1893.0717,1411.52007 L1816.69752,1395.63853 L1849.26316,1167.48669 L1952,1186.07971 L1952,1146.56954 L1941.14479,1144.63277 L1952,1071.0354 L1952,910.283249 L1939.98173,991.62771 L1830.65422,965.287599 C1836.08183,936.62336 1850.8139,860.314509 1856.24151,831.262916 L1952,849.081227 L1952,825.452598 L1890.35789,813.83196 L1938.81867,549.656141 L1952,551.980268 L1952,512.470102 L1920.20973,506.659783 L1928.73883,447.007179 L1952,441.971569 L1952,429.963577 L1930.28957,434.611832 L1949.2862,302.911277 L1952,303.298632 L1952,9.29650978 L1945.02165,58.1031861 L1871.74896,62.751441 L1868.25978,8.80742332e-13 L1856.6292,8.80742332e-13 L1860.11837,63.5261502 L1798.08858,67.3996959 L1795.37478,8.80742332e-13 L1772.1136,8.80742332e-13 L1774.82741,68.9491142 L1688.76107,74.3720782 L1701.9424,0.387354574 L1678.29355,0.387354574 L1665.4999,72.4353054 L1535.62502,37.9607483 L1542.60338,0.387354574 L1503.05938,0.387354574 L1489.87805,72.0479508 L1400.71023,87.1547792 L1389.85501,0.387354574 L1366.20616,0.387354574 L1377.44906,91.0283249 L1290.21966,105.747799 L1252.6141,29.4389476 C1274.71221,22.8539199 1312.31778,12.0079918 1352.63714,0.387354574 L1268.89692,0.387354574 L1242.14657,8.13444606 L1238.26971,0.387354574 L1194.84886,0.387354574 L1204.15333,18.9803741 C1190.58431,22.8539199 1172.36306,27.8895293 1154.14181,32.9251388 C1151.428,25.1780473 1147.16346,13.5574101 1142.89891,0.387354574 L1130.49295,0.387354574 L1142.89891,36.0239754 C1121.18848,42.2216486 1101.80417,47.6446126 1094.05045,49.5813855 L1037.83595,32.1504297 L1041.32512,0.387354574 L1029.69454,0.387354574 L1026.59305,28.2768839 L954.483416,5.81031861 L956.421847,0 L931.60993,0 L922.305462,25.5654019 L860.663357,0 L838.952929,0 L819.956306,49.1940309 L731.563853,18.5930196 C735.053029,12.3953464 738.542205,6.19767319 742.03138,0 L714.893347,0 C701.712016,22.4665653 687.367627,44.1584215 672.247865,63.5261502 L661.780338,0 L638.13148,0 L641.232969,17.8183104 L582.304667,52.6802221 L551.289772,0 L537.720755,0 L610.60576,123.566109 C609.055015,124.728173 607.116584,125.890237 605.565839,127.0523 C582.304667,142.159129 552.065144,153.392411 517.173386,161.914212 L528.803972,8.80742332e-13 L517.173386,8.80742332e-13 L505.155114,164.625694 C492.36147,167.337176 479.180139,169.661303 465.611122,171.985431 L452.817478,0.387354574 L429.16862,0.387354574 L433.433168,58.4905407 L292.703078,41.4469394 L291.54002,0.387354574 L268.278848,0.387354574 L269.05422,38.7354574 L236.48858,34.8619117 L201.596822,0.774709148 L184.926316,0.774709148 L217.491956,32.5377842 L98.8599801,18.205665 L101.186097,0.774709148 L89.5555114,0.774709148 L87.6170804,17.0436013 L40.7070506,11.2332827 L42.2577954,0.774709148 L2.71380338,0.774709148 L1.16305859,10.4585735 L1.16305859,304.460695 L102.349156,323.053715 L119.795035,406.722303 L1.16305859,431.512996 L1.16305859,443.520987 L36.8301887,436.161251 L48.0730884,522.541321 L1.16305859,513.632165 L1.16305859,553.142332 L52.7253227,562.826196 L13.5690169,828.938789 L1.16305859,826.614661 L1.16305859,850.24329 L10.0798411,851.792709 L1.16305859,911.445313 L1.16305859,1072.19746 L32.9533267,856.053609 L143.443893,876.583401 L114.367428,1167.87404 L1.55074479,1147.7316 L1.55074479,1187.24177 L105.062959,1205.83479 L1.55074479,1337.9227 L1.55074479,1375.88345 L104.287587,1244.9576 L75.9864945,1440.95902 L1.16305859,1425.46483 L1.16305859,1449.48082 C31.4025819,1455.67849 56.6021847,1461.10145 72.4973188,1464.20029 L60.4790467,1547.48152 L1.16305859,1537.4103 L1.16305859,1561.03893 L8.14141013,1562.201 L1.16305859,1569.94809 L1.16305859,1587.37904 L21.710427,1564.52513 L56.9898709,1570.7228 L41.8701092,1676.4706 L0.775372393,1650.51784 L0.775372393,1664.46261 L39.9316783,1689.2533 L28.6887786,1768.66099 L1.16305859,1767.88628 L1.16305859,1779.50691 L27.1380338,1780.28162 L22.4857994,1813.59412 L1.16305859,1814.36883 L1.16305859,1837.6101 L18.9966236,1837.22275 L2.71380338,1951.8797 L42.2577954,1951.8797 L58.5406157,1839.15952 L103.124528,1844.96984 L89.9431976,1951.49234 L101.573784,1951.49234 L110.878252,1878.28233 L185.314002,1951.49234 L201.984508,1951.49234 L112.428997,1863.95021 L114.755114,1846.51926 L266.340417,1866.66169 L268.278848,1951.49234 L291.54002,1951.49234 L289.601589,1869.76053 L424.516385,1887.57884 L429.16862,1951.49234 L452.817478,1951.49234 L450.49136,1918.56721 L520.274876,1906.55921 L517.173386,1951.49234 L528.803972,1951.49234 L529.967031,1937.93493 L538.108441,1951.49234 L551.677458,1951.49234 L531.517776,1917.40514 L532.293148,1904.62244 L628.051639,1888.35355 L638.519166,1951.49234 L662.168024,1951.49234 L629.214697,1753.55416 L795.919762,1766.33686 C777.69851,1822.11592 750.948163,1890.67768 715.668719,1951.49234 L742.806753,1951.49234 C757.151142,1925.53959 769.944786,1898.81212 781.575372,1872.47201 L859.112612,1901.91096 L839.728302,1951.49234 L861.438729,1951.49234 L853.685005,1948.39351 L892.453625,1848.84338 L963.787885,1865.49963 L932.385303,1951.49234 L957.197219,1951.49234 L1016.51321,1788.41607 L1048.69116,1784.15517 L1030.08222,1951.49234 L1041.71281,1951.49234 L1049.07885,1884.48 L1102.19186,1870.14788 L1130.88064,1951.49234 L1143.28659,1951.49234 C1132.43138,1920.50398 1118.86236,1881.76852 1113.43476,1867.04905 L1149.10189,1857.36518 L1195.23654,1951.49234 L1238.6574,1951.49234 L1218.8854,1910.82011 L1374.34757,1862.78815 L1365.81847,1923.60282 L1269.67229,1951.49234 L1353.41251,1951.49234 C1357.67706,1950.33028 1361.94161,1949.16822 1366.59384,1947.6188 L1366.98153,1951.49234 L1390.63039,1951.49234 L1389.46733,1941.03377 C1437.15273,1927.08901 1484.45045,1913.5316 1512.75154,1905.39715 L1504.22244,1951.49234 L1543.76643,1951.49234 L1551.90785,1894.16387 L1551.90785,1894.16387 Z M1530.97279,1793.06432 L1408.46395,1776.40808 L1420.86991,1690.02801 L1546.09255,1711.33251 L1530.97279,1793.06432 L1530.97279,1793.06432 Z M1269.28461,1640.44662 L1277.8137,1593.18936 L1407.68858,1617.5927 L1401.09791,1662.91319 L1269.28461,1640.44662 L1269.28461,1640.44662 Z M1397.99643,1686.15446 L1392.56882,1722.95315 L1306.50248,1710.5578 L1315.03158,1672.2097 L1397.99643,1686.15446 L1397.99643,1686.15446 Z M963.400199,1639.67191 L905.634955,1638.12249 L914.551738,1588.54111 L963.400199,1612.16974 C962.624826,1616.81799 962.23714,1621.07889 962.23714,1625.72715 C962.23714,1630.3754 962.624826,1635.02366 963.400199,1639.67191 L963.400199,1639.67191 Z M981.233764,1679.18208 C984.335253,1683.05562 987.824429,1686.54182 991.313605,1689.64065 L947.505065,1747.74384 L906.022642,1677.24531 L981.233764,1679.18208 L981.233764,1679.18208 Z M978.51996,1575.75841 L867.254022,1522.30348 L988.212115,1478.14506 L1006.43337,1550.96771 C995.190467,1557.16539 985.885998,1565.68719 978.51996,1575.75841 L978.51996,1575.75841 Z M207.412115,1452.1923 L221.756504,1420.04187 L399.316783,1377.82022 L373.729494,1466.52442 L207.412115,1452.1923 L207.412115,1452.1923 Z M368.301887,1489.37834 L356.283615,1550.19301 L312.862761,1539.34708 L315.96425,1485.11744 L368.301887,1489.37834 L368.301887,1489.37834 Z M120.570407,199.100251 C160.114399,202.199088 205.86137,204.523215 253.934459,205.297924 L253.546773,216.918562 L114.755114,259.914919 L120.570407,199.100251 L120.570407,199.100251 Z M72.885005,171.210722 L86.0663357,97.2259981 L213.615094,113.107536 C212.452036,126.664946 208.96286,161.914212 207.024429,180.119877 C155.849851,178.183104 109.327507,174.696913 72.885005,171.210722 L72.885005,171.210722 Z M374.892552,327.314615 L390.012314,462.114007 C355.120556,465.987553 250.832969,477.995545 213.615094,482.643799 L229.897915,341.25938 L374.892552,327.314615 L374.892552,327.314615 Z M253.159086,229.313908 L249.669911,316.081333 L220.20576,318.792815 L193.067726,313.757205 L185.314002,250.231055 L253.159086,229.313908 L253.159086,229.313908 Z M391.563059,473.734644 L396.990665,522.541321 L206.636743,545.782595 L212.452036,494.651791 L391.563059,473.734644 L391.563059,473.734644 Z M1194.07349,464.438134 L1172.36306,540.746986 L1083.19523,575.221543 C1070.0139,538.810213 1059.93406,503.173592 1054.11877,481.86909 L1194.07349,464.438134 L1194.07349,464.438134 Z M1071.95233,390.453411 L1140.1851,382.318965 L1147.93883,430.738286 L1077.76763,439.260087 L1071.95233,390.453411 L1071.95233,390.453411 Z M1411.17776,887.041975 L1328.6006,867.674246 L1369.69533,739.072528 L1440.64191,752.242583 C1435.60199,775.871212 1422.80834,833.587044 1411.17776,887.041975 L1411.17776,887.041975 Z M1452.27249,754.179356 L1539.50189,770.448248 L1425.52214,876.583401 L1452.27249,754.179356 L1452.27249,754.179356 Z M673.79861,780.906822 L808.713406,768.124121 L823.445482,826.614661 L661.780338,831.262916 L673.79861,780.906822 L673.79861,780.906822 Z M673.79861,679.419923 L797.08282,722.416281 L802.898113,745.270201 L683.878451,756.503483 L673.79861,679.419923 L673.79861,679.419923 Z M1287.89355,867.674246 L1265.79543,936.62336 L1169.64926,898.662612 L1195.23654,834.361753 L1287.89355,867.674246 L1287.89355,867.674246 Z M1199.50109,823.12847 L1221.59921,767.349411 C1254.55253,786.329786 1286.73049,802.986032 1305.33942,812.282542 L1291.38272,856.440963 L1199.50109,823.12847 L1199.50109,823.12847 Z M1136.69593,918.030341 L1091.33664,879.682238 L1145.61271,802.598678 L1174.30149,823.12847 L1136.69593,918.030341 L1136.69593,918.030341 Z M1132.04369,929.263623 L1129.71758,934.686587 L1016.12552,944.370452 L959.13565,868.448955 L1015.73784,830.488207 L1132.04369,929.263623 L1132.04369,929.263623 Z M1004.49494,949.018707 L908.348759,1004.41041 L886.250645,917.642986 L949.055809,875.421338 C959.911023,889.366102 993.252036,933.524524 1004.49494,949.018707 L1004.49494,949.018707 Z M951.769613,859.5398 C946.729692,853.342127 937.81291,841.72149 931.222244,833.587044 L978.51996,799.499841 L1006.43337,823.12847 L951.769613,859.5398 L951.769613,859.5398 Z M942.077458,866.124828 L883.536842,905.24764 L875.395432,873.484565 L921.530089,840.172071 L942.077458,866.124828 L942.077458,866.124828 Z M878.884608,1045.85735 L775.760079,1015.25634 L853.297319,944.370452 L878.884608,1045.85735 L878.884608,1045.85735 Z M762.578749,1011.38279 L629.214697,971.872627 L659.066534,843.270908 L826.159285,838.235299 L849.808143,931.200396 L762.578749,1011.38279 L762.578749,1011.38279 Z M617.971797,762.701157 L599.750546,608.146681 L652.088183,600.39959 L672.635551,757.665547 L617.971797,762.701157 L617.971797,762.701157 Z M616.808739,786.329786 L661.780338,782.068885 L640.069911,874.646628 L595.485998,860.314509 L616.808739,786.329786 L616.808739,786.329786 Z M637.356107,886.267266 L617.971797,968.386435 L568.73565,953.666962 L591.996822,871.547792 L637.356107,886.267266 L637.356107,886.267266 Z M624.562463,994.726546 L560.981927,1167.09933 L513.684211,1147.34425 L562.532671,976.133527 L624.562463,994.726546 L624.562463,994.726546 Z M635.805362,998.212738 L696.672095,1016.4184 L670.309434,1094.66403 C652.863555,1089.24106 620.685601,1079.16984 607.50427,1075.2963 L635.805362,998.212738 L635.805362,998.212738 Z M688.918371,1112.86969 C700.936643,1117.13059 721.484012,1124.10297 745.908242,1132.62477 L707.139623,1220.55426 L654.801986,1214.35659 L688.918371,1112.86969 L688.918371,1112.86969 Z M692.795233,1101.63641 L719.157895,1022.61608 L809.488779,1049.34354 L787.778352,1134.56155 L692.795233,1101.63641 L692.795233,1101.63641 Z M820.731678,1052.82973 L885.475273,1072.19746 L912.225621,1178.33261 L798.633565,1138.43509 L820.731678,1052.82973 L820.731678,1052.82973 Z M911.837934,1016.03105 L961.849454,987.36681 L986.273684,1074.52159 L922.305462,1058.2527 L911.837934,1016.03105 L911.837934,1016.03105 Z M971.929295,981.169136 L1014.96246,956.378444 L1124.67766,947.081934 L1065.74935,1094.66403 L999.067329,1077.62043 L971.929295,981.169136 L971.929295,981.169136 Z M1117.31162,1029.2011 L1170.03694,1046.63206 L1151.04032,1116.35588 L1089.01053,1100.47435 L1117.31162,1029.2011 L1117.31162,1029.2011 Z M1121.57617,1018.35518 L1164.99702,909.121186 L1261.91857,947.469288 L1227.80218,1053.60444 L1121.57617,1018.35518 L1121.57617,1018.35518 Z M1266.18312,1062.12624 L1364.26773,1079.5572 L1282.07825,1216.68072 L1231.29136,1170.58552 L1266.18312,1062.12624 L1266.18312,1062.12624 Z M1278.20139,1024.9402 L1325.11142,878.907529 L1408.85164,898.662612 C1400.32254,937.010715 1392.9565,971.872627 1389.07964,988.528873 L1316.19464,1031.91259 L1278.20139,1024.9402 L1278.20139,1024.9402 Z M1418.93148,907.184413 L1453.82324,949.793416 L1403.03635,980.007073 L1418.93148,907.184413 L1418.93148,907.184413 Z M1312.70546,789.815977 C1273.54916,770.060893 1185.54439,723.19099 1144.44965,688.329078 C1142.51122,686.77966 1140.57279,684.842887 1138.63436,682.906114 L1232.84211,602.336363 L1338.68044,709.246225 L1312.70546,789.815977 L1312.70546,789.815977 Z M1170.42463,624.802928 L1139.79742,565.925033 L1176.23992,551.980268 L1216.1716,586.067471 L1170.42463,624.802928 L1170.42463,624.802928 Z M1161.50785,632.55002 L1124.67766,663.92574 C1111.10864,643.008593 1098.70268,614.731709 1087.45978,585.680116 L1128.55452,569.798579 L1161.50785,632.55002 L1161.50785,632.55002 Z M1129.32989,706.147389 C1147.55114,721.641572 1173.9138,739.072528 1201.43952,755.34142 L1178.95372,811.895187 L1070.40159,733.262209 L1120.41311,697.238234 C1123.5146,700.33707 1126.2284,703.435907 1129.32989,706.147389 L1129.32989,706.147389 Z M1136.30824,795.626295 L1082.41986,871.935146 L988.599801,792.140104 L1060.32175,740.621946 L1136.30824,795.626295 L1136.30824,795.626295 Z M993.252036,759.989675 L972.316981,690.653206 L1024.26693,665.862513 L1045.97736,722.416281 L993.252036,759.989675 L993.252036,759.989675 Z M968.827805,679.032569 L952.157299,623.640864 L988.987488,573.672124 L1020.00238,654.62923 L968.827805,679.032569 L968.827805,679.032569 Z M973.092354,774.321794 L869.192453,849.081227 L831.586892,700.724425 L944.015889,679.032569 L973.092354,774.321794 L973.092354,774.321794 Z M829.260775,689.103787 L785.064548,514.406874 L890.90288,501.624174 L940.914399,667.799286 L829.260775,689.103787 L829.260775,689.103787 Z M793.981331,708.858871 L672.247865,666.249868 L663.331082,598.850172 L762.578749,584.130698 L793.981331,708.858871 L793.981331,708.858871 Z M598.199801,596.526044 L591.22145,538.035504 L745.908242,519.055129 L759.477259,572.510061 L598.199801,596.526044 L598.199801,596.526044 Z M584.243098,499.687401 L572.612512,449.331306 L737.766832,457.078398 L743.969811,480.319672 L584.243098,499.687401 L584.243098,499.687401 Z M592.772195,749.531101 L481.506256,622.091446 L476.854022,551.980268 L567.960278,540.746986 L592.772195,749.531101 L592.772195,749.531101 Z M472.589474,513.244811 L464.448064,462.888716 C495.850645,458.240461 531.130089,452.430143 548.963654,450.106015 L561.369613,502.398883 L472.589474,513.244811 L472.589474,513.244811 Z M465.223436,553.529686 L469.487984,618.99261 L420.251837,623.640864 L421.802582,558.565296 L465.223436,553.529686 L465.223436,553.529686 Z M473.364846,630.613247 L590.833764,765.412639 L415.987289,782.068885 L419.864151,636.036211 C435.759285,634.099438 464.060377,631.387956 473.364846,630.613247 L473.364846,630.613247 Z M591.609136,788.653913 L495.075273,1127.58917 L447.777557,1101.24905 L548.188282,792.914813 L591.609136,788.653913 L591.609136,788.653913 Z M507.481231,1170.19817 L628.051639,1220.55426 L614.482622,1260.83914 L496.626018,1206.99685 L507.481231,1170.19817 L507.481231,1170.19817 Z M571.83714,1171.74759 L603.239722,1085.75487 L666.432572,1105.50995 L635.417676,1198.47505 L571.83714,1171.74759 L571.83714,1171.74759 Z M650.925124,1225.97723 L704.038133,1232.1749 L692.019861,1311.19523 L635.417676,1272.45978 L650.925124,1225.97723 L650.925124,1225.97723 Z M716.444091,1228.68871 L756.763456,1136.49832 C788.553724,1147.7316 824.996226,1160.5143 856.786495,1171.36023 L821.507051,1351.86746 L776.535452,1368.91107 L702.487388,1318.16762 L716.444091,1228.68871 L716.444091,1228.68871 Z M894.779742,1349.15598 L914.551738,1420.04187 L831.199206,1454.90378 L793.205958,1387.89144 L894.779742,1349.15598 L894.779742,1349.15598 Z M834.688381,1347.21921 L868.41708,1175.62113 C887.413704,1182.20616 904.084211,1188.01648 916.102483,1192.27738 L944.791261,1305.38491 L834.688381,1347.21921 L834.688381,1347.21921 Z M928.896127,1083.8181 L1059.15869,1117.13059 L1025.42999,1161.67637 L953.708044,1182.20616 L928.896127,1083.8181 L928.896127,1083.8181 Z M1071.56465,1120.22943 L1194.46117,1151.60515 L1057.22026,1221.32897 L1035.50983,1167.48669 L1071.56465,1120.22943 L1071.56465,1120.22943 Z M1162.28322,1119.45472 L1180.89215,1050.50561 L1224.31301,1064.83772 L1203.37795,1129.91329 L1162.28322,1119.45472 L1162.28322,1119.45472 Z M1227.4145,1183.36822 L1337.51738,1282.91835 L1329.37597,1298.41253 C1273.54916,1287.5666 1225.08838,1278.27009 1198.72572,1273.23449 L1227.4145,1183.36822 L1227.4145,1183.36822 Z M1290.99503,1225.20252 L1376.67368,1082.26868 L1436.37736,1093.11461 L1342.94499,1272.45978 L1290.99503,1225.20252 L1290.99503,1225.20252 Z M1448.39563,1095.05138 L1467.39225,1098.53757 L1430.56207,1318.16762 C1400.71023,1312.3573 1370.47071,1306.54698 1341.39424,1301.12401 L1448.39563,1095.05138 L1448.39563,1095.05138 Z M1454.9863,1243.02083 L1551.13247,1265.87475 L1539.50189,1339.08476 C1510.42542,1333.6618 1476.69672,1327.07677 1441.80497,1320.49174 L1454.9863,1243.02083 L1454.9863,1243.02083 Z M1469.71837,1349.54334 L1535.23734,1361.93868 L1506.16087,1482.79331 L1452.27249,1471.94738 L1469.71837,1349.54334 L1469.71837,1349.54334 Z M1546.48024,1364.26281 L1607.73466,1375.88345 L1585.24886,1498.67485 L1517.79146,1485.11744 L1546.48024,1364.26281 L1546.48024,1364.26281 Z M1551.13247,1341.40889 L1562.76306,1267.81152 L1626.73128,1272.84713 L1611.99921,1353.02953 C1597.65482,1350.31805 1576.71976,1346.05715 1551.13247,1341.40889 L1551.13247,1341.40889 Z M1564.70149,1256.19088 L1572.45521,1206.99685 L1637.19881,1215.90601 L1628.66971,1261.22649 L1564.70149,1256.19088 L1564.70149,1256.19088 Z M1574.39364,1195.37622 L1586.41192,1119.84207 L1652.70626,1131.85007 L1639.52493,1204.28537 L1574.39364,1195.37622 L1574.39364,1195.37622 Z M1553.0709,1254.25411 L1456.92473,1231.40019 L1479.02284,1100.47435 L1574.78133,1117.51795 L1553.0709,1254.25411 L1553.0709,1254.25411 Z M1351.47408,1038.11026 L1468.943,968.386435 L1555.78471,1074.90894 L1351.47408,1038.11026 L1351.47408,1038.11026 Z M1479.02284,962.188762 L1631.7712,871.547792 L1665.88759,912.994731 L1512.75154,1003.24835 L1479.02284,962.188762 L1479.02284,962.188762 Z M1463.90308,943.595743 L1423.58371,894.401712 L1552.29553,774.321794 L1616.65144,852.954772 L1463.90308,943.595743 L1463.90308,943.595743 Z M1557.33545,688.716433 L1465.84151,676.708441 C1468.55531,659.277485 1471.26912,643.008593 1472.81986,634.874147 L1563.15074,653.079812 L1557.33545,688.716433 L1557.33545,688.716433 Z M1555.39702,699.949716 L1547.6433,747.981683 L1456.53704,730.938081 C1458.08779,720.479508 1460.80159,704.210616 1463.51539,687.554369 L1555.39702,699.949716 L1555.39702,699.949716 Z M1445.29414,729.001309 L1377.44906,716.218608 L1407.68858,621.316737 L1461.18928,632.162665 L1445.29414,729.001309 L1445.29414,729.001309 Z M1346.82185,683.680823 L1251.06336,586.84218 L1326.27448,522.541321 L1388.69196,554.304396 L1346.82185,683.680823 L1346.82185,683.680823 Z M1225.08838,577.933025 L1183.99364,543.071113 L1206.86713,462.888716 L1346.82185,445.845115 C1348.76028,453.204852 1351.47408,460.177234 1355.35094,466.374907 L1225.08838,577.933025 L1225.08838,577.933025 Z M1171.2,428.026804 L1152.59106,309.10895 L1232.06673,296.713604 L1250.67567,418.34294 L1171.2,428.026804 L1171.2,428.026804 Z M1106.45641,678.645214 L1056.0572,715.056544 L997.516584,562.826196 L1037.83595,508.209201 C1051.01728,555.079105 1075.8292,632.162665 1106.45641,678.645214 L1106.45641,678.645214 Z M947.892751,609.6961 L914.164052,498.525337 L1030.8576,484.193218 C1031.63297,486.9047 1032.40834,490.003536 1033.18371,493.489727 L947.892751,609.6961 L947.892751,609.6961 Z M929.283813,457.465752 L891.678252,462.114007 L827.71003,359.465045 L929.6715,343.583507 L929.283813,457.465752 L929.283813,457.465752 Z M878.884608,463.663425 L781.187686,475.671417 L819.956306,369.148909 L878.884608,463.663425 L878.884608,463.663425 Z M762.578749,458.240461 L710.241112,256.041374 L821.894737,295.55154 L762.578749,458.240461 L762.578749,458.240461 Z M734.665343,444.683051 L643.946773,440.422151 L619.522542,303.685986 L696.284409,296.326249 L734.665343,444.683051 L734.665343,444.683051 Z M631.9285,440.034796 L569.898709,437.323314 L540.434558,311.820432 L607.891956,305.235404 L631.9285,440.034796 L631.9285,440.034796 Z M546.249851,438.485378 L462.897319,451.268079 L454.755909,400.911984 L535.006951,390.066056 L546.249851,438.485378 L546.249851,438.485378 Z M460.958888,514.794229 L420.251837,519.829839 L414.82423,471.023162 C424.128699,469.473744 437.697716,467.536971 453.205164,465.212844 L460.958888,514.794229 L460.958888,514.794229 Z M415.599603,805.31016 L535.782324,794.076877 L474.527905,981.556491 L411.722741,955.603734 L415.599603,805.31016 L415.599603,805.31016 Z M471.038729,992.789774 L436.922344,1097.37551 L408.233565,1092.72725 L411.335055,968.386435 L471.038729,992.789774 L471.038729,992.789774 Z M433.045482,1108.60879 L405.519762,1193.05209 L407.845879,1104.34789 C415.987289,1105.50995 426.454816,1107.44673 433.045482,1108.60879 L433.045482,1108.60879 Z M444.288381,1112.48234 L491.973784,1139.2098 L441.186892,1317.39291 L402.805958,1298.79989 L404.356703,1234.11167 L444.288381,1112.48234 L444.288381,1112.48234 Z M493.912214,1218.23014 L610.993446,1271.68507 L574.550943,1380.91906 L462.897319,1327.07677 L493.912214,1218.23014 L493.912214,1218.23014 Z M631.540814,1284.08041 L763.354121,1374.33403 L649.762066,1417.71774 L595.485998,1391.37763 L631.540814,1284.08041 L631.540814,1284.08041 Z M646.27289,1459.16468 L750.560477,1509.52078 L723.422443,1559.87687 L630.765442,1540.12179 L646.27289,1459.16468 L646.27289,1459.16468 Z M678.83853,1431.66251 L781.963059,1392.15234 L820.343992,1459.16468 L775.372393,1477.7577 L678.83853,1431.66251 L678.83853,1431.66251 Z M918.040914,1431.66251 L933.160675,1486.2795 L852.521946,1515.71845 L789.329096,1485.50479 L918.040914,1431.66251 L918.040914,1431.66251 Z M906.022642,1344.89508 L950.218868,1327.85148 L985.110626,1466.52442 L944.015889,1481.63125 L906.022642,1344.89508 L906.022642,1344.89508 Z M956.421847,1193.43944 L1025.42999,1173.68436 L1091.72433,1337.14799 L999.842701,1365.81223 L956.421847,1193.43944 L956.421847,1193.43944 Z M1061.87249,1232.1749 L1192.13505,1165.93727 L1122.73923,1382.08112 L1061.87249,1232.1749 L1061.87249,1232.1749 Z M1191.35968,1296.08841 L1302.62562,1317.39291 L1281.30288,1437.47282 L1154.14181,1411.90742 L1191.35968,1296.08841 L1191.35968,1296.08841 Z M1300.2995,1465.36235 L1425.90983,1490.92776 L1416.21768,1559.10216 L1294.8719,1496.35072 L1300.2995,1465.36235 L1300.2995,1465.36235 Z M1304.17637,1442.12108 L1325.49911,1321.65381 L1446.4572,1344.89508 L1429.01132,1467.29913 L1304.17637,1442.12108 L1304.17637,1442.12108 Z M1448.78332,1495.18866 L1580.98431,1521.91612 L1567.80298,1592.80201 L1438.31579,1567.23661 L1448.78332,1495.18866 L1448.78332,1495.18866 Z M1596.10407,1655.55345 L1652.70626,1662.91319 L1635.26038,1752.77945 L1579.43357,1745.80707 L1596.10407,1655.55345 L1596.10407,1655.55345 Z M1598.0425,1643.93281 L1624.01748,1502.54839 L1681.78272,1512.61961 L1654.64469,1651.29255 L1598.0425,1643.93281 L1598.0425,1643.93281 Z M1628.28203,1479.69447 L1646.11559,1383.63054 C1664.33684,1387.50408 1694.57637,1393.70176 1730.2435,1401.06149 L1709.30844,1493.63924 L1628.28203,1479.69447 L1628.28203,1479.69447 Z M1649.99245,1360.77662 L1671.70288,1242.24612 L1811.26991,1261.61385 L1792.66097,1390.60292 L1649.99245,1360.77662 L1649.99245,1360.77662 Z M1667.43833,1094.66403 L1573.23059,1077.62043 L1519.72989,1012.54486 L1672.86594,922.291241 L1695.73942,950.18077 L1667.43833,1094.66403 L1667.43833,1094.66403 Z M1717.44985,961.026699 L1814.3714,984.655328 C1808.94379,1012.1575 1794.98709,1082.26868 1788.39643,1116.35588 L1690.6995,1098.92493 L1717.44985,961.026699 L1717.44985,961.026699 Z M1701.55472,919.967114 L1586.41192,779.357403 L1723.65283,805.31016 L1701.55472,919.967114 L1701.55472,919.967114 Z M1570.51678,752.629938 L1593.39027,608.921391 L1757.38153,632.55002 L1728.30506,782.45624 L1570.51678,752.629938 L1570.51678,752.629938 Z M1658.52155,594.589271 L1672.09057,498.525337 L1779.86733,518.667775 L1762.03376,609.6961 L1658.52155,594.589271 L1658.52155,594.589271 Z M1666.66296,457.853107 L1622.46673,449.718661 L1636.42344,369.923618 L1681.00735,374.571873 L1666.66296,457.853107 L1666.66296,457.853107 Z M1660.45998,496.20121 C1656.58312,522.928675 1649.99245,570.960642 1646.89096,592.652498 L1597.26713,585.292762 L1613.16226,486.9047 L1660.45998,496.20121 L1660.45998,496.20121 Z M1599.20556,445.070406 L1514.68997,429.188868 L1514.68997,424.153259 C1514.68997,412.145267 1511.97617,400.52463 1507.71162,390.066056 L1587.57498,342.034089 L1609.2854,388.903992 L1599.20556,445.070406 L1599.20556,445.070406 Z M1590.28878,483.031154 L1565.08918,641.07182 L1411.56544,610.083454 L1444.51877,507.821847 C1469.71837,503.560946 1491.4288,488.066763 1503.83476,466.374907 L1590.28878,483.031154 L1590.28878,483.031154 Z M1429.39901,470.248453 C1403.81172,470.248453 1382.87666,449.331306 1382.87666,423.765904 C1382.87666,398.200502 1403.81172,377.283355 1429.39901,377.283355 C1454.9863,377.283355 1475.92135,398.200502 1475.92135,423.765904 C1475.92135,449.331306 1454.9863,470.248453 1429.39901,470.248453 L1429.39901,470.248453 Z M1403.81172,505.497719 L1391.79345,543.071113 L1335.57895,514.406874 L1369.69533,485.355281 C1378.9998,494.264437 1390.63039,501.236819 1403.81172,505.497719 L1403.81172,505.497719 Z M1345.65879,406.722303 L1262.30626,416.793522 L1243.30963,294.776831 L1332.08977,280.832066 L1371.24608,360.627109 C1358.84012,373.022455 1349.53565,388.903992 1345.65879,406.722303 L1345.65879,406.722303 Z M1133.20675,288.191803 L1127.39146,241.709254 L1297.19801,209.558825 L1321.62224,259.14021 L1133.20675,288.191803 L1133.20675,288.191803 Z M1129.32989,312.595141 L1138.24667,370.698327 L1070.40159,378.832774 L1063.81092,322.66636 L1129.32989,312.595141 L1129.32989,312.595141 Z M1066.13704,440.809505 L941.302085,455.916334 L941.302085,341.646734 L1052.56802,324.215779 L1066.13704,440.809505 L1066.13704,440.809505 Z M945.178947,317.630751 L985.110626,174.309558 L1034.34677,192.902578 L1006.04568,307.946886 L945.178947,317.630751 L945.178947,317.630751 Z M932.772989,319.567524 L832.74995,335.061707 L902.921152,142.933838 L974.643098,170.048658 L932.772989,319.567524 L932.772989,319.567524 Z M825.771599,284.705612 L768.394042,264.563174 L788.553724,192.127869 L850.195829,217.693271 L825.771599,284.705612 L825.771599,284.705612 Z M757.538828,260.689628 L706.751936,242.871318 L681.94002,147.969447 L778.086197,187.866968 L757.538828,260.689628 L757.538828,260.689628 Z M690.469116,273.859684 L530.354717,288.966512 L522.988679,237.060999 L673.023237,207.234697 L690.469116,273.859684 L690.469116,273.859684 Z M532.293148,378.832774 L452.817478,389.678702 L441.962264,321.116942 L517.173386,313.757205 L532.293148,378.832774 L532.293148,378.832774 Z M443.125323,402.848757 L451.266733,453.204852 L413.661172,459.01517 L407.845879,407.497012 L443.125323,402.848757 L443.125323,402.848757 Z M406.295134,395.876375 L398.54141,324.990488 L430.331678,321.891651 L441.186892,390.840765 L406.295134,395.876375 L406.295134,395.876375 Z M398.54141,561.664133 L396.990665,625.964992 C378.381728,627.51441 340.776167,631.000601 325.656405,632.162665 L327.982522,569.798579 L398.54141,561.664133 L398.54141,561.664133 Z M301.619861,943.983097 L299.68143,996.663319 C286.500099,996.275965 255.097517,995.113901 241.916187,994.726546 L244.242304,940.109552 L301.619861,943.983097 L301.619861,943.983097 Z M248.506852,916.480922 L306.272095,823.12847 L302.395233,920.354468 L248.506852,916.480922 L248.506852,916.480922 Z M298.906058,1008.28396 L296.57994,1071.0354 C277.583317,1067.16185 257.423635,1063.28831 238.814697,1059.80211 L241.140814,1006.34718 L298.906058,1008.28396 L298.906058,1008.28396 Z M295.804568,1082.65603 L286.112413,1160.90166 L224.857994,1145.02012 L237.263952,1071.0354 L295.804568,1082.65603 L295.804568,1082.65603 Z M292.315392,1205.44743 L326.431778,1213.96924 L322.942602,1260.45178 L287.663158,1243.40818 L292.315392,1205.44743 L292.315392,1205.44743 Z M293.866137,1193.43944 L307.047468,1084.59281 L335.736246,1090.01577 L327.594836,1201.57389 L293.866137,1193.43944 L293.866137,1193.43944 Z M347.366832,1092.72725 L384.584707,1100.08699 L379.932473,1287.5666 L334.573188,1265.87475 L347.366832,1092.72725 L347.366832,1092.72725 Z M308.210526,1073.35953 L310.536643,1009.05867 C325.656405,1009.83337 366.363456,1012.1575 386.523138,1013.31957 L384.584707,1088.46635 C369.077259,1085.36752 340.388481,1079.5572 308.210526,1073.35953 L308.210526,1073.35953 Z M311.312016,997.050674 L313.250447,944.757806 L388.461569,950.18077 L387.29851,1001.69893 L311.312016,997.050674 L311.312016,997.050674 Z M314.025819,921.129177 L318.678054,806.472223 L392.338431,801.049259 L389.236941,926.164787 L314.025819,921.129177 L314.025819,921.129177 Z M319.06574,794.851586 L321.004171,748.756392 L393.50149,750.693165 L392.338431,789.428622 L319.06574,794.851586 L319.06574,794.851586 Z M321.779543,725.515117 L324.881033,644.170657 L396.215293,637.972984 L393.889176,727.45189 L321.779543,725.515117 L321.779543,725.515117 Z M209.738232,584.518052 L315.96425,571.735351 L313.638133,632.937374 L205.085998,631.77531 L209.738232,584.518052 L209.738232,584.518052 Z M313.250447,644.558011 L310.148957,725.127763 L196.169215,722.028926 L203.922939,643.395948 L313.250447,644.558011 L313.250447,644.558011 Z M309.373585,748.756392 L307.435154,799.499841 L270.217279,859.927155 L192.292354,761.539093 L193.843098,745.657555 L309.373585,748.756392 L309.373585,748.756392 Z M263.238928,870.385728 L234.937835,915.706213 L176.784906,911.445313 L190.353923,778.19534 L263.238928,870.385728 L263.238928,870.385728 Z M232.611718,938.947488 L227.184111,1057.09063 C201.596822,1052.05502 178.723337,1047.40677 163.991261,1044.69529 L174.846475,934.686587 L232.611718,938.947488 L232.611718,938.947488 Z M157.400596,716.605962 L110.490566,710.020934 L133.751738,575.996252 L170.969613,582.968634 L157.400596,716.605962 L157.400596,716.605962 Z M162.440516,1056.31592 L225.633366,1068.71127 L203.147567,1202.3486 L150.034558,1176.7832 L162.440516,1056.31592 L162.440516,1056.31592 Z M222.919563,1156.64076 L284.561668,1172.5223 L276.420258,1237.59786 L214.390467,1207.77156 L222.919563,1156.64076 L222.919563,1156.64076 Z M282.235551,1284.08041 L408.621251,1344.89508 L402.805958,1365.03752 L227.184111,1406.87181 L282.235551,1284.08041 L282.235551,1284.08041 Z M419.476465,1349.93069 L481.506256,1379.75699 L454.368222,1473.10945 L386.135452,1467.29913 L419.476465,1349.93069 L419.476465,1349.93069 Z M502.828997,1390.21557 L556.329692,1415.78097 L517.173386,1579.2446 L449.715988,1572.27222 L502.828997,1390.21557 L502.828997,1390.21557 Z M595.873684,1599.38704 L590.058391,1629.21334 L434.20854,1624.95244 L446.226812,1583.89285 L595.873684,1599.38704 L595.873684,1599.38704 Z M528.803972,1580.40666 L567.184906,1421.20393 L624.562463,1449.09346 L597.812115,1588.15375 L528.803972,1580.40666 L528.803972,1580.40666 Z M628.827011,1551.74242 L794.756703,1587.37904 L788.94141,1634.6363 L614.094935,1629.60069 L628.827011,1551.74242 L628.827011,1551.74242 Z M735.440715,1562.58835 L761.41569,1514.55639 L819.180933,1542.44591 L798.633565,1576.14576 L735.440715,1562.58835 L735.440715,1562.58835 Z M806.774975,1584.66756 L829.260775,1547.48152 L903.308838,1583.11814 L893.616683,1637.73514 L800.18431,1635.02366 L806.774975,1584.66756 L806.774975,1584.66756 Z M1047.5281,1579.2446 C1073.11539,1579.2446 1094.05045,1600.16175 1094.05045,1625.72715 C1094.05045,1651.29255 1073.11539,1672.2097 1047.5281,1672.2097 C1021.94081,1672.2097 1001.00576,1651.29255 1001.00576,1625.72715 C1001.39345,1600.16175 1021.94081,1579.2446 1047.5281,1579.2446 L1047.5281,1579.2446 Z M1070.78928,1543.60798 C1063.42324,1541.67121 1055.66951,1540.50914 1047.5281,1540.50914 L1044.03893,1540.50914 L1002.94419,1377.04551 L1096.37656,1347.99392 L1117.31162,1399.89943 L1070.78928,1543.60798 L1070.78928,1543.60798 Z M1147.16346,1434.37399 L1277.42602,1460.7141 L1275.48759,1472.33474 L1117.31162,1576.14576 C1113.82244,1571.49751 1110.33327,1567.23661 1106.06872,1563.36306 L1147.16346,1434.37399 L1147.16346,1434.37399 Z M1272.3861,1487.82892 L1246.02344,1636.18572 L1132.43138,1616.81799 C1131.26832,1605.58471 1128.16683,1595.12614 1123.12691,1585.82963 L1272.3861,1487.82892 L1272.3861,1487.82892 Z M1303.78868,1669.88557 L1294.8719,1708.62103 L1190.58431,1693.5142 L1210.74399,1654.00403 L1303.78868,1669.88557 L1303.78868,1669.88557 Z M1279.75214,1581.18137 L1292.54578,1508.35871 L1414.27925,1571.11015 L1409.23932,1605.58471 L1279.75214,1581.18137 L1279.75214,1581.18137 Z M1550.3571,1688.09123 L1424.35909,1666.78673 L1436.76504,1578.85724 L1565.47686,1604.03529 L1550.3571,1688.09123 L1550.3571,1688.09123 Z M1610.06077,1881.38117 L1556.56008,1870.92259 L1577.49513,1757.04035 L1632.93426,1764.01273 L1610.06077,1881.38117 L1610.06077,1881.38117 Z M1686.82264,1896.488 L1632.93426,1886.02942 L1667.05065,1710.94515 L1717.44985,1722.17844 L1686.82264,1896.488 L1686.82264,1896.488 Z M1719.38828,1710.17044 L1669.37676,1698.93716 L1705.04389,1516.1058 L1752.34161,1524.24025 L1719.38828,1710.17044 L1719.38828,1710.17044 Z M1865.93366,1814.36883 L1789.55948,1816.3056 L1787.62105,1765.9495 L1849.65084,1697.7751 C1853.14002,1724.50256 1862.0568,1787.64136 1865.93366,1814.36883 L1865.93366,1814.36883 Z M1847.32473,1683.05562 L1786.84568,1749.68061 L1777.9289,1529.27586 L1822.12512,1536.6356 L1847.32473,1683.05562 L1847.32473,1683.05562 Z M1884.15492,1432.82457 L1870.19821,1520.75406 L1720.93903,1495.18866 L1741.87408,1402.99827 C1785.68262,1412.68213 1836.46951,1423.14071 1884.15492,1432.82457 L1884.15492,1432.82457 Z M1813.59603,1249.99321 L1674.41668,1230.62548 L1691.47488,1138.82245 L1826.38967,1162.83843 L1813.59603,1249.99321 L1813.59603,1249.99321 Z M1859.343,1129.13858 L1800.02701,1118.68001 L1812.04528,1057.09063 L1870.19821,1068.71127 L1859.343,1129.13858 L1859.343,1129.13858 Z M1917.88361,1139.59716 L1870.97358,1131.07536 L1882.21648,1071.0354 L1926.8004,1079.94455 L1917.88361,1139.59716 L1917.88361,1139.59716 Z M1936.10487,1013.70692 L1927.96346,1067.93656 L1813.98371,1045.08264 L1825.6143,986.979455 L1936.10487,1013.70692 L1936.10487,1013.70692 Z M1819.02363,961.414053 L1722.10209,937.785424 L1747.30169,809.57106 L1844.61092,827.776725 L1819.02363,961.414053 L1819.02363,961.414053 Z M1878.33962,810.345769 L1751.56624,786.329786 L1772.88898,677.870505 L1898.4993,703.048552 L1878.33962,810.345769 L1878.33962,810.345769 Z M1943.08322,68.9491142 L1929.5142,162.688921 L1877.17656,161.914212 L1872.52433,73.2100145 L1943.08322,68.9491142 L1943.08322,68.9491142 Z M1876.40119,185.155486 L1926.02502,185.930196 L1899.27468,371.085682 L1859.343,371.085682 L1876.40119,185.155486 L1876.40119,185.155486 Z M1858.17994,383.093674 L1897.72393,383.093674 L1881.05343,498.137982 L1848.1001,491.940309 L1858.17994,383.093674 L1858.17994,383.093674 Z M1836.8572,489.616182 L1814.75909,485.355281 L1802.35313,183.993423 L1864.77061,185.155486 L1836.8572,489.616182 L1836.8572,489.616182 Z M1860.50606,73.9847237 L1865.15829,161.914212 L1801.57776,160.752148 L1798.08858,77.8582694 L1860.50606,73.9847237 L1860.50606,73.9847237 Z M1802.74081,522.928675 L1926.8004,546.16995 L1900.05005,691.815269 L1774.82741,666.637222 L1802.74081,522.928675 L1802.74081,522.928675 Z M1791.11023,481.094381 L1678.29355,459.78988 C1682.55809,434.224478 1690.31182,390.840765 1693.02562,375.733937 L1787.62105,385.805156 L1791.11023,481.094381 L1791.11023,481.094381 Z M1786.84568,373.797164 L1638.36187,357.915627 L1649.60477,294.776831 L1783.74419,293.614767 L1786.84568,373.797164 L1786.84568,373.797164 Z M1686.04727,84.4432972 L1774.43972,79.0203331 L1777.9289,166.175112 L1671.70288,165.400403 L1686.04727,84.4432972 L1686.04727,84.4432972 Z M1670.15214,177.02104 L1779.09196,177.79575 L1783.3565,281.606775 L1651.93088,282.768839 L1670.15214,177.02104 L1670.15214,177.02104 Z M1532.91122,47.6446126 L1662.7861,82.1191697 L1648.82939,161.914212 L1518.95452,123.566109 L1532.91122,47.6446126 L1532.91122,47.6446126 Z M1646.89096,173.534849 L1616.26375,348.619117 L1517.40377,135.186746 L1646.89096,173.534849 L1646.89096,173.534849 Z M1509.65005,174.309558 L1582.53505,331.188161 L1502.28401,379.607483 C1495.69335,369.148909 1487.16425,359.852399 1476.69672,352.880017 L1509.65005,174.309558 L1509.65005,174.309558 Z M1486.77656,82.5065243 L1439.47885,339.322607 C1436.76504,338.935252 1434.05124,338.935252 1430.94975,338.935252 L1401.09791,97.2259981 L1486.77656,82.5065243 L1486.77656,82.5065243 Z M1377.83674,101.099544 L1407.68858,341.646734 C1406.91321,341.646734 1406.52552,342.034089 1405.75015,342.034089 L1294.09652,115.044309 L1377.83674,101.099544 L1377.83674,101.099544 Z M1213.4578,38.7354574 L1292.15809,198.712897 L1214.62085,213.43237 L1160.73247,53.4549312 L1213.4578,38.7354574 L1213.4578,38.7354574 Z M1149.48957,56.5537678 C1160.73247,89.4789066 1194.07349,189.416387 1202.99027,215.756498 L1126.2284,230.088617 L1105.68103,68.5617596 L1149.48957,56.5537678 L1149.48957,56.5537678 Z M1110.33327,291.677994 L1018.83932,306.010114 L1045.58967,197.163478 L1101.0288,218.080625 L1110.33327,291.677994 L1110.33327,291.677994 Z M1099.09037,204.91057 L988.987488,163.076276 L1014.96246,106.135153 L1090.17358,133.637328 L1099.09037,204.91057 L1099.09037,204.91057 Z M1031.63297,53.0675767 L1082.03217,68.5617596 L1088.62284,120.467273 L1019.22701,95.2892252 L1031.63297,53.0675767 L1031.63297,53.0675767 Z M945.178947,26.340111 L1020.77776,49.9687401 L1006.82105,97.2259981 L978.51996,159.20273 L906.798014,132.08791 L945.178947,26.340111 L945.178947,26.340111 Z M847.09434,6.19767319 L916.877855,35.2492662 L901.758093,76.3088511 L829.260775,51.1308038 L847.09434,6.19767319 L847.09434,6.19767319 Z M821.894737,73.5973691 L893.616683,98.3880618 L854.072691,206.459988 L791.655214,180.507232 L821.894737,73.5973691 L821.894737,73.5973691 Z M717.60715,37.5733937 L811.039523,69.7238234 L781.187686,176.246331 L678.450844,133.637328 L669.534062,99.9374801 C686.97994,80.957106 702.875074,60.039959 717.60715,37.5733937 L717.60715,37.5733937 Z M586.181529,61.2020227 L641.232969,28.6642385 L650.537438,85.2180063 C640.069911,96.451289 629.214697,106.135153 617.971797,115.044309 L586.181529,61.2020227 L586.181529,61.2020227 Z M616.421053,145.257965 C628.051639,137.510874 639.682224,128.601719 650.537438,118.917854 L670.69712,196.388769 L521.825621,225.827717 L516.010328,184.380777 C555.166634,175.084268 589.670705,162.301567 616.421053,145.257965 L616.421053,145.257965 Z M503.992056,186.704905 L518.336445,290.128576 L362.486594,304.84805 L354.73287,203.748506 C407.070506,201.811733 458.245084,196.388769 503.992056,186.704905 L503.992056,186.704905 Z M433.433168,80.5697514 L440.411519,173.534849 C393.889176,179.345168 343.877656,181.669295 294.641509,181.669295 L291.927706,63.1387956 L433.433168,80.5697514 L433.433168,80.5697514 Z M343.48997,204.523215 L351.243694,306.397468 L261.300497,314.919269 L265.952731,205.685279 C291.152334,205.685279 317.514995,205.297924 343.48997,204.523215 L343.48997,204.523215 Z M231.836346,56.1664133 L267.891162,60.4273136 L269.05422,108.459281 L226.408739,103.036317 C227.571797,92.5777432 230.285601,70.1111779 231.836346,56.1664133 L231.836346,56.1664133 Z M269.441907,120.079918 L270.992651,181.669295 C253.159086,181.669295 235.713208,181.281941 218.655015,180.507232 L225.24568,114.656954 L269.441907,120.079918 L269.441907,120.079918 Z M35.2794439,32.1504297 L220.20576,54.616995 L214.778153,101.486898 L28.6887786,78.245624 L35.2794439,32.1504297 L35.2794439,32.1504297 Z M27.1380338,89.8662612 L74.4357498,95.6765798 L61.2544191,170.048658 C42.6454816,168.111885 27.52572,166.562467 16.2828203,165.400403 L27.1380338,89.8662612 L27.1380338,89.8662612 Z M99.6353525,296.713604 L0,278.507939 L12.7936445,188.641678 C32.9533267,190.965805 66.6820258,194.839351 108.939821,197.938187 L99.6353525,296.713604 L99.6353525,296.713604 Z M113.592056,272.310266 L173.29573,253.717246 L180.661768,311.433078 L111.265938,298.650377 L113.592056,272.310266 L113.592056,272.310266 Z M112.816683,323.053715 L206.249057,340.097316 L182.600199,545.782595 L158.175968,541.13434 L112.816683,323.053715 L112.816683,323.053715 Z M46.5223436,431.125641 L120.182721,415.631458 L145.77001,538.810213 L58.5406157,522.541321 L46.5223436,431.125641 L46.5223436,431.125641 Z M34.5040715,830.875562 L73.6603774,564.762969 L122.121152,573.672124 L75.9864945,838.235299 L34.5040715,830.875562 L34.5040715,830.875562 Z M87.6170804,840.559426 L108.552135,721.254217 L156.625223,727.839245 L144.219265,851.017999 L87.6170804,840.559426 L87.6170804,840.559426 Z M144.994638,1217.84278 L261.300497,1273.62184 L182.600199,1449.86817 L112.816683,1444.05785 L144.994638,1217.84278 L144.994638,1217.84278 Z M109.327507,1467.29913 L293.090765,1482.79331 L289.989275,1537.02295 L97.3092354,1552.12978 L109.327507,1467.29913 L109.327507,1467.29913 Z M289.213903,1549.03094 L284.949355,1620.30418 L236.876266,1618.75477 L236.876266,1552.90449 L289.213903,1549.03094 L289.213903,1549.03094 Z M95.3708044,1564.52513 L225.24568,1554.45391 L225.24568,1619.14212 L88.0047666,1615.26857 L95.3708044,1564.52513 L95.3708044,1564.52513 Z M164.766634,1827.53888 L59.7036743,1813.59412 L75.5988083,1703.19806 L175.234161,1716.75547 L164.766634,1827.53888 L164.766634,1827.53888 Z M77.1495531,1691.57743 L82.5771599,1654.00403 L180.661768,1656.71551 L176.397219,1705.13484 L77.1495531,1691.57743 L77.1495531,1691.57743 Z M212.06435,1833.73655 L176.397219,1829.0883 L186.477061,1718.30489 L223.307249,1723.3405 L212.06435,1833.73655 L212.06435,1833.73655 Z M224.470308,1711.71986 L187.640119,1706.68425 L192.292354,1656.71551 L229.897915,1657.87758 L224.470308,1711.71986 L224.470308,1711.71986 Z M276.807944,1842.64571 L235.325521,1837.22275 L246.568421,1726.05198 L284.561668,1728.37611 L276.807944,1842.64571 L276.807944,1842.64571 Z M247.73148,1714.04399 L253.546773,1658.65229 L406.295134,1662.91319 L410.559682,1723.3405 L247.73148,1714.04399 L247.73148,1714.04399 Z M288.43853,1844.19513 L296.57994,1728.76346 L411.722741,1735.34849 L421.02721,1862.01344 L288.43853,1844.19513 L288.43853,1844.19513 Z M410.171996,1624.17773 L308.598213,1621.46625 L312.475074,1551.35507 L422.965641,1579.63195 L410.171996,1624.17773 L410.171996,1624.17773 Z M367.914201,1553.29184 L380.320159,1490.5404 L447.777557,1496.35072 L426.842502,1568.39867 L367.914201,1553.29184 L367.914201,1553.29184 Z M429.556306,1663.6879 L589.283019,1668.33615 L596.26137,1709.39574 L434.20854,1723.3405 L429.556306,1663.6879 L429.556306,1663.6879 Z M434.983913,1734.57378 L598.199801,1720.62902 L608.279643,1780.28162 L439.636147,1798.48729 L434.983913,1734.57378 L434.983913,1734.57378 Z M447.389871,1904.62244 L441.186892,1822.11592 L611.768818,1803.5229 L623.399404,1874.40878 L447.389871,1904.62244 L447.389871,1904.62244 Z M624.950149,1739.22204 L613.319563,1668.72351 L819.956306,1674.53382 C815.304071,1692.35213 807.938034,1719.85431 797.470506,1752.39209 L624.950149,1739.22204 L624.950149,1739.22204 Z M861.051043,1888.7409 L783.90149,1859.30196 C788.553724,1847.68132 793.205958,1836.06068 797.470506,1824.8274 L878.496922,1843.80777 L861.051043,1888.7409 L861.051043,1888.7409 Z M805.611917,1802.74819 C825.383913,1747.35648 837.789871,1700.09923 843.605164,1675.30853 L892.065938,1676.85795 L939.363654,1757.81506 L890.127507,1822.50327 L805.611917,1802.74819 L805.611917,1802.74819 Z M969.603178,1841.09629 L902.921152,1825.60211 L948.668123,1765.56215 L990.925919,1782.9931 L969.603178,1841.09629 L969.603178,1841.09629 Z M995.190467,1771.75982 L956.034161,1755.49093 L1000.61807,1697.00039 C1006.43337,1700.87394 1012.24866,1703.58542 1018.83932,1705.90954 L995.190467,1771.75982 L995.190467,1771.75982 Z M1019.22701,1773.6966 L1042.1005,1710.5578 L1047.5281,1710.5578 C1056.83257,1710.5578 1066.13704,1709.00838 1074.66614,1706.2969 L1102.19186,1762.46331 L1019.22701,1773.6966 L1019.22701,1773.6966 Z M1049.07885,1869.76053 L1059.15869,1780.28162 L1108.00715,1773.6966 L1142.51122,1844.19513 L1049.07885,1869.76053 L1049.07885,1869.76053 Z M1144.06197,1759.36448 L1108.00715,1685.76711 C1120.02542,1673.75911 1128.55452,1657.87758 1131.65601,1640.44662 L1198.33803,1651.6799 L1144.06197,1759.36448 L1144.06197,1759.36448 Z M1212.29474,1898.03741 L1191.74737,1856.59047 L1259.98014,1837.22275 L1271.22304,1879.83175 L1212.29474,1898.03741 L1212.29474,1898.03741 Z M1374.73525,1847.68132 L1282.46594,1876.34556 L1271.61072,1833.73655 L1381.32592,1802.36083 L1374.73525,1847.68132 L1374.73525,1847.68132 Z M1384.81509,1777.18279 L1181.27984,1835.28597 L1150.65263,1772.53453 L1185.1567,1704.74748 L1391.01807,1734.57378 L1384.81509,1777.18279 L1384.81509,1777.18279 Z M1388.69196,1914.30631 L1404.97478,1799.64935 L1462.35233,1807.39644 L1448.78332,1896.87535 L1388.69196,1914.30631 L1388.69196,1914.30631 Z M1515.46534,1877.50762 L1461.57696,1893.0018 L1474.37061,1808.94586 L1526.70824,1815.91824 L1515.46534,1877.50762 L1515.46534,1877.50762 Z" id="Map" fill="#CECECE"></path>
                    </g>
                </g>
                <g id="Location" mask="url(#mask-2)">
                    <g transform="translate(999.875000, 122.750000)">
                        <mask id="mask-4" fill="white">
                            <use xlink:href="#path-3"></use>
                        </mask>
                        <use id="Mask" stroke="none" fill="#878686" fill-rule="evenodd" xlink:href="#path-3"></use>
                        <g id="↪🎨" stroke="none" stroke-width="1" fill="none" fill-rule="evenodd" mask="url(#mask-4)">
                            <g transform="translate(-21.875000, -8.750000)" fill="#2C2C2C" id="Atoms-/-Colors-/-Black">
                                <rect x="0" y="0" width="105" height="105"></rect>
                            </g>
                        </g>
                    </g>
                </g>
            </g>
        </g>
    </g>
</svg>