<?xml version="1.0" encoding="UTF-8"?>
<svg width="24px" height="24px" viewBox="0 0 24 24" version="1.1" xmlns="http://www.w3.org/2000/svg" xmlns:xlink="http://www.w3.org/1999/xlink">
    <title>F30AFEA4-9687-40A1-B7BA-CA4F026C2F35</title>
    <defs>
        <path d="M19,0 C20.6522844,0 22,1.34771525 22,3 L22,15 C22,16.6522847 20.6522844,18 19,18 L3,18 C1.3477149,18 0,16.6522847 0,14.9991667 L0.00999965278,3 C0.00999965278,1.34734877 1.34805636,0 3,0 L19,0 Z M16.6632471,4.14361248 L10.97,7.573 L5.51623483,4.2870756 C5.07697202,4.0224083 4.51570858,4.13493129 4.20956119,4.53110846 L4.14361214,4.62752667 C3.85858581,5.10057893 4.01101095,5.71512304 4.48406321,6.00014937 L4.48406321,6.00014937 L11.0036982,9.92839949 L11.01,9.917 L17.6998324,5.85777344 C18.1708902,5.57187774 18.3219063,4.9587924 18.0375286,4.48681667 L18.0358698,4.48406356 C17.7508435,4.0110113 17.1362994,3.85858616 16.6632471,4.14361248 Z" id="path-1"></path>
    </defs>
    <g id="Page-1" stroke="none" stroke-width="1" fill="none" fill-rule="evenodd">
        <g id="z" transform="translate(-475.000000, -871.000000)">
            <rect fill="#FFFFFF" x="0" y="0" width="1920" height="2804"></rect>
            <rect id="Rectangle-Copy-2" fill="#FBFBFB" transform="translate(960.000000, 817.000000) scale(-1, 1) translate(-960.000000, -817.000000) " x="3" y="519" width="1914" height="596"></rect>
            <g id="Email" transform="translate(475.000000, 871.000000)">
                <g id="icon" transform="translate(1.000000, 3.000000)">
                    <mask id="mask-2" fill="white">
                        <use xlink:href="#path-1"></use>
                    </mask>
                    <use id="Mask" fill="#979797" fill-rule="nonzero" xlink:href="#path-1"></use>
                </g>
            </g>
        </g>
    </g>
</svg>