<?xml version="1.0" encoding="UTF-8"?>
<svg width="24px" height="24px" viewBox="0 0 24 24" version="1.1" xmlns="http://www.w3.org/2000/svg" xmlns:xlink="http://www.w3.org/1999/xlink">
    <title>C95F0A7C-C008-4580-B2DE-E80E3BC11C20</title>
    <defs>
        <path d="M3.62,7.79 C5.06,10.62 7.38,12.93 10.21,14.38 L12.41,12.18 C12.68,11.91 13.08,11.82 13.43,11.94 C14.55,12.31 15.76,12.51 17,12.51 C17.55,12.51 18,12.96 18,13.51 L18,17 C18,17.55 17.55,18 17,18 C7.61,18 0,10.39 0,1 C0,0.45 0.45,0 1,0 L4.5,0 C5.05,0 5.5,0.45 5.5,1 C5.5,2.25 5.7,3.45 6.07,4.57 C6.18,4.92 6.1,5.31 5.82,5.59 L3.62,7.79 L3.62,7.79 Z" id="path-1"></path>
    </defs>
    <g id="Page-1" stroke="none" stroke-width="1" fill="none" fill-rule="evenodd">
        <g id="z" transform="translate(-475.000000, -798.000000)">
            <rect fill="#FFFFFF" x="0" y="0" width="1920" height="2804"></rect>
            <rect id="Rectangle-Copy-2" fill="#FBFBFB" transform="translate(960.000000, 817.000000) scale(-1, 1) translate(-960.000000, -817.000000) " x="3" y="519" width="1914" height="596"></rect>
            <g id="Phone-number" transform="translate(475.000000, 798.000000)">
                <g id="icon" transform="translate(3.000000, 3.000000)">
                    <mask id="mask-2" fill="white">
                        <use xlink:href="#path-1"></use>
                    </mask>
                    <use id="Mask" fill="#878686" xlink:href="#path-1"></use>
                </g>
            </g>
        </g>
    </g>
</svg>